<mxfile host="app.diagrams.net" agent="Mozilla/5.0 (Windows NT 10.0; Win64; x64) AppleWebKit/537.36 (KHTML, like Gecko) Chrome/131.0.0.0 Safari/537.36" version="24.7.17">
  <diagram name="Page-1" id="J7-wP1IVVEBXATcV6-qm">
    <mxGraphModel dx="1395" dy="615" grid="1" gridSize="10" guides="1" tooltips="1" connect="1" arrows="1" fold="1" page="1" pageScale="1" pageWidth="827" pageHeight="1169" math="0" shadow="0">
      <root>
        <mxCell id="0" />
        <mxCell id="1" parent="0" />
        <mxCell id="hN02Q_GIFAzkUgHNYYCv-1" value="User Interface" style="html=1;dropTarget=0;whiteSpace=wrap;" vertex="1" parent="1">
          <mxGeometry x="324" y="30" width="180" height="90" as="geometry" />
        </mxCell>
        <mxCell id="hN02Q_GIFAzkUgHNYYCv-2" value="" style="shape=module;jettyWidth=8;jettyHeight=4;" vertex="1" parent="hN02Q_GIFAzkUgHNYYCv-1">
          <mxGeometry x="1" width="20" height="20" relative="1" as="geometry">
            <mxPoint x="-27" y="7" as="offset" />
          </mxGeometry>
        </mxCell>
        <mxCell id="hN02Q_GIFAzkUgHNYYCv-3" value="Penetration Test Runner" style="html=1;dropTarget=0;whiteSpace=wrap;" vertex="1" parent="1">
          <mxGeometry x="324" y="180" width="180" height="90" as="geometry" />
        </mxCell>
        <mxCell id="hN02Q_GIFAzkUgHNYYCv-4" value="" style="shape=module;jettyWidth=8;jettyHeight=4;" vertex="1" parent="hN02Q_GIFAzkUgHNYYCv-3">
          <mxGeometry x="1" width="20" height="20" relative="1" as="geometry">
            <mxPoint x="-27" y="7" as="offset" />
          </mxGeometry>
        </mxCell>
        <mxCell id="hN02Q_GIFAzkUgHNYYCv-7" value="Report Writer" style="html=1;dropTarget=0;whiteSpace=wrap;" vertex="1" parent="1">
          <mxGeometry x="324" y="400" width="180" height="90" as="geometry" />
        </mxCell>
        <mxCell id="hN02Q_GIFAzkUgHNYYCv-8" value="" style="shape=module;jettyWidth=8;jettyHeight=4;" vertex="1" parent="hN02Q_GIFAzkUgHNYYCv-7">
          <mxGeometry x="1" width="20" height="20" relative="1" as="geometry">
            <mxPoint x="-27" y="7" as="offset" />
          </mxGeometry>
        </mxCell>
        <mxCell id="hN02Q_GIFAzkUgHNYYCv-9" value="" style="rounded=0;orthogonalLoop=1;jettySize=auto;html=1;endArrow=halfCircle;endFill=0;endSize=6;strokeWidth=1;sketch=0;exitX=0.5;exitY=0;exitDx=0;exitDy=0;" edge="1" target="hN02Q_GIFAzkUgHNYYCv-11" parent="1" source="hN02Q_GIFAzkUgHNYYCv-3">
          <mxGeometry relative="1" as="geometry">
            <mxPoint x="220" y="155" as="sourcePoint" />
          </mxGeometry>
        </mxCell>
        <mxCell id="hN02Q_GIFAzkUgHNYYCv-10" value="" style="rounded=0;orthogonalLoop=1;jettySize=auto;html=1;endArrow=oval;endFill=0;sketch=0;sourcePerimeterSpacing=0;targetPerimeterSpacing=0;endSize=10;exitX=0.5;exitY=1;exitDx=0;exitDy=0;" edge="1" target="hN02Q_GIFAzkUgHNYYCv-11" parent="1" source="hN02Q_GIFAzkUgHNYYCv-1">
          <mxGeometry relative="1" as="geometry">
            <mxPoint x="180" y="155" as="sourcePoint" />
          </mxGeometry>
        </mxCell>
        <mxCell id="hN02Q_GIFAzkUgHNYYCv-11" value="" style="ellipse;whiteSpace=wrap;html=1;align=center;aspect=fixed;fillColor=none;strokeColor=none;resizable=0;perimeter=centerPerimeter;rotatable=0;allowArrows=0;points=[];outlineConnect=1;" vertex="1" parent="1">
          <mxGeometry x="409" y="130" width="10" height="10" as="geometry" />
        </mxCell>
        <mxCell id="hN02Q_GIFAzkUgHNYYCv-14" value="" style="rounded=0;orthogonalLoop=1;jettySize=auto;html=1;endArrow=oval;endFill=0;sketch=0;sourcePerimeterSpacing=0;targetPerimeterSpacing=0;endSize=10;exitX=0.5;exitY=1;exitDx=0;exitDy=0;" edge="1" parent="1" source="hN02Q_GIFAzkUgHNYYCv-3">
          <mxGeometry relative="1" as="geometry">
            <mxPoint x="160" y="245" as="sourcePoint" />
            <mxPoint x="414" y="340" as="targetPoint" />
          </mxGeometry>
        </mxCell>
        <mxCell id="hN02Q_GIFAzkUgHNYYCv-16" value="" style="rounded=0;orthogonalLoop=1;jettySize=auto;html=1;endArrow=halfCircle;endFill=0;endSize=6;strokeWidth=1;sketch=0;exitX=0.5;exitY=0;exitDx=0;exitDy=0;" edge="1" parent="1" source="hN02Q_GIFAzkUgHNYYCv-7">
          <mxGeometry relative="1" as="geometry">
            <mxPoint x="260" y="395" as="sourcePoint" />
            <mxPoint x="414" y="340" as="targetPoint" />
          </mxGeometry>
        </mxCell>
        <mxCell id="hN02Q_GIFAzkUgHNYYCv-19" value="&lt;span style=&quot;color: rgba(0, 0, 0, 0); font-family: monospace; font-size: 0px; text-align: start; background-color: rgb(251, 251, 251);&quot;&gt;%3CmxGraphModel%3E%3Croot%3E%3CmxCell%20id%3D%220%22%2F%3E%3CmxCell%20id%3D%221%22%20parent%3D%220%22%2F%3E%3CmxCell%20id%3D%222%22%20value%3D%22%22%20style%3D%22endArrow%3Dnone%3Bdashed%3D1%3Bhtml%3D1%3BdashPattern%3D1%203%3BstrokeWidth%3D2%3Brounded%3D0%3B%22%20edge%3D%221%22%20parent%3D%221%22%3E%3CmxGeometry%20width%3D%2250%22%20height%3D%2250%22%20relative%3D%221%22%20as%3D%22geometry%22%3E%3CmxPoint%20x%3D%2260%22%20y%3D%22140%22%20as%3D%22sourcePoint%22%2F%3E%3CmxPoint%20x%3D%22790%22%20y%3D%22140%22%20as%3D%22targetPoint%22%2F%3E%3C%2FmxGeometry%3E%3C%2FmxCell%3E%3C%2Froot%3E%3C%2FmxGraphModel%3E&lt;/span&gt;" style="endArrow=none;dashed=1;html=1;dashPattern=1 3;strokeWidth=2;rounded=0;" edge="1" parent="1">
          <mxGeometry width="50" height="50" relative="1" as="geometry">
            <mxPoint x="60" y="150" as="sourcePoint" />
            <mxPoint x="790" y="150" as="targetPoint" />
          </mxGeometry>
        </mxCell>
        <mxCell id="hN02Q_GIFAzkUgHNYYCv-21" value="User Layer" style="text;html=1;align=center;verticalAlign=middle;whiteSpace=wrap;rounded=0;" vertex="1" parent="1">
          <mxGeometry x="710" y="40" width="60" height="30" as="geometry" />
        </mxCell>
        <mxCell id="hN02Q_GIFAzkUgHNYYCv-22" value="Logic Layer" style="text;html=1;align=center;verticalAlign=middle;whiteSpace=wrap;rounded=0;" vertex="1" parent="1">
          <mxGeometry x="710" y="160" width="60" height="30" as="geometry" />
        </mxCell>
        <mxCell id="hN02Q_GIFAzkUgHNYYCv-24" value="" style="rounded=0;orthogonalLoop=1;jettySize=auto;html=1;endArrow=halfCircle;endFill=0;endSize=6;strokeWidth=1;sketch=0;exitX=0;exitY=0.5;exitDx=0;exitDy=0;" edge="1" target="hN02Q_GIFAzkUgHNYYCv-26" parent="1" source="hN02Q_GIFAzkUgHNYYCv-1">
          <mxGeometry relative="1" as="geometry">
            <mxPoint x="110" y="315" as="sourcePoint" />
            <Array as="points">
              <mxPoint x="195" y="75" />
            </Array>
          </mxGeometry>
        </mxCell>
        <mxCell id="hN02Q_GIFAzkUgHNYYCv-25" value="" style="rounded=0;orthogonalLoop=1;jettySize=auto;html=1;endArrow=oval;endFill=0;sketch=0;sourcePerimeterSpacing=0;targetPerimeterSpacing=0;endSize=10;exitX=0.5;exitY=1;exitDx=0;exitDy=0;" edge="1" target="hN02Q_GIFAzkUgHNYYCv-26" parent="1" source="hN02Q_GIFAzkUgHNYYCv-7">
          <mxGeometry relative="1" as="geometry">
            <mxPoint x="70" y="315" as="sourcePoint" />
            <Array as="points">
              <mxPoint x="414" y="560" />
              <mxPoint x="195" y="560" />
            </Array>
          </mxGeometry>
        </mxCell>
        <mxCell id="hN02Q_GIFAzkUgHNYYCv-26" value="" style="ellipse;whiteSpace=wrap;html=1;align=center;aspect=fixed;fillColor=none;strokeColor=none;resizable=0;perimeter=centerPerimeter;rotatable=0;allowArrows=0;points=[];outlineConnect=1;" vertex="1" parent="1">
          <mxGeometry x="190" y="310" width="10" height="10" as="geometry" />
        </mxCell>
        <mxCell id="hN02Q_GIFAzkUgHNYYCv-27" value="IUserInput" style="text;html=1;align=center;verticalAlign=middle;resizable=0;points=[];autosize=1;strokeColor=none;fillColor=none;" vertex="1" parent="1">
          <mxGeometry x="450" y="120" width="80" height="30" as="geometry" />
        </mxCell>
        <mxCell id="hN02Q_GIFAzkUgHNYYCv-28" value="IRunTests" style="text;html=1;align=center;verticalAlign=middle;resizable=0;points=[];autosize=1;strokeColor=none;fillColor=none;" vertex="1" parent="1">
          <mxGeometry x="424" y="330" width="80" height="30" as="geometry" />
        </mxCell>
        <mxCell id="hN02Q_GIFAzkUgHNYYCv-30" value="IProvideReport" style="text;html=1;align=center;verticalAlign=middle;resizable=0;points=[];autosize=1;strokeColor=none;fillColor=none;" vertex="1" parent="1">
          <mxGeometry x="90" y="300" width="100" height="30" as="geometry" />
        </mxCell>
      </root>
    </mxGraphModel>
  </diagram>
</mxfile>
